# xmcd
#
# Track frame offsets: 
#        180
#        18573
#        43638
#        75960
#        91711
#        106851
#        127624
#        161006
#        173758
#        190397
#
# Disc length: 2944 seconds
#
# Revision: 0
# Processed by: cddbd v1.5PL3 Copyright (c) Steve Scherf et al.
# Submitted via: ExactAudioCopy v0.95a4
#
DISCID=670b7e0a
DTITLE=Steve Gannon Band - Oaktown
DYEAR=1992
DGENRE=Blues
TTITLE0=Date With The Blues
TTITLE1=Hip-Hug-Her
TTITLE2=Wee Wee Hours
TTITLE3=Big Chief
TTITLE4=Slippin 'n Slidin
TTITLE5=To Through With You
TTITLE6=Trouble, Trouble
TTITLE7=Oaktown Shuffle
TTITLE8=Back In The U.S.A.
TTITLE9=Fool For You
EXTD=
EXTT0=
EXTT1=
EXTT2=
EXTT3=
EXTT4=
EXTT5=
EXTT6=
EXTT7=
EXTT8=
EXTT9=
PLAYORDER=
